<?xml version="1.0" encoding="UTF-8"?>
<svg xmlns="http://www.w3.org/2000/svg" viewBox="0 0 278 278" width="278" height="278">
<rect width="278" height="278" fill="#ffffff"/>
<defs><marker id="arrow" viewBox="0 0 10 10" refX="9" refY="5" markerWidth="7" markerHeight="7" orient="auto-start-reverse"><path d="M 0 0 L 10 5 L 0 10 z" fill="#1a1a1a"/></marker></defs>
<path d="M 50.6 127.0 C 16.6 113.0 16.6 165.0 48.6 151.0" fill="none" stroke="#1a1a1a" stroke-width="1.2" marker-end="url(#arrow)"/>
<text x="18.6" y="139.0" font-family="osifont, ISOCPEUR, sans-serif" font-size="11" text-anchor="middle" dominant-baseline="central" fill="#1a1a1a">1/Ш</text>
<path d="M 72.6 125.2 Q 118.1 123.8 103.0 83.3" fill="none" stroke="#1a1a1a" stroke-width="1.2" marker-end="url(#arrow)"/>
<text x="103.3" y="127.3" font-family="osifont, ISOCPEUR, sans-serif" font-size="11" text-anchor="middle" dominant-baseline="central" fill="#1a1a1a">0/П</text>
<path d="M 105.4 80.1 Q 59.9 81.6 74.9 122.0" fill="none" stroke="#1a1a1a" stroke-width="1.2" marker-end="url(#arrow)"/>
<text x="74.7" y="78.0" font-family="osifont, ISOCPEUR, sans-serif" font-size="11" text-anchor="middle" dominant-baseline="central" fill="#1a1a1a">1/Ш</text>
<path d="M 131.6 71.6 Q 147.0 114.4 180.8 87.6" fill="none" stroke="#1a1a1a" stroke-width="1.2" marker-end="url(#arrow)"/>
<text x="139.1" y="101.5" font-family="osifont, ISOCPEUR, sans-serif" font-size="11" text-anchor="middle" dominant-baseline="central" fill="#1a1a1a">0/П</text>
<path d="M 184.6 99.3 Q 113.7 61.3 82.6 132.5" fill="none" stroke="#1a1a1a" stroke-width="1.2" marker-end="url(#arrow)"/>
<text x="142.3" y="75.9" font-family="osifont, ISOCPEUR, sans-serif" font-size="11" text-anchor="middle" dominant-baseline="central" fill="#1a1a1a">1/Ш</text>
<path d="M 200.8 111.1 Q 164.9 139.0 200.8 162.9" fill="none" stroke="#1a1a1a" stroke-width="1.2" marker-end="url(#arrow)"/>
<text x="174.7" y="127.5" font-family="osifont, ISOCPEUR, sans-serif" font-size="11" text-anchor="middle" dominant-baseline="central" fill="#1a1a1a">0/П</text>
<path d="M 184.6 178.7 Q 149.7 106.2 82.6 145.5" fill="none" stroke="#1a1a1a" stroke-width="1.2" marker-end="url(#arrow)"/>
<text x="164.2" y="134.8" font-family="osifont, ISOCPEUR, sans-serif" font-size="11" text-anchor="middle" dominant-baseline="central" fill="#1a1a1a">1/Ш</text>
<path d="M 184.6 189.2 Q 147.0 163.6 135.4 205.2" fill="none" stroke="#1a1a1a" stroke-width="1.2" marker-end="url(#arrow)"/>
<text x="161.0" y="169.4" font-family="osifont, ISOCPEUR, sans-serif" font-size="11" text-anchor="middle" dominant-baseline="central" fill="#1a1a1a">0/П</text>
<path d="M 105.4 197.9 Q 118.1 154.2 74.9 156.0" fill="none" stroke="#1a1a1a" stroke-width="1.2" marker-end="url(#arrow)"/>
<text x="116.9" y="169.3" font-family="osifont, ISOCPEUR, sans-serif" font-size="11" text-anchor="middle" dominant-baseline="central" fill="#1a1a1a">1/Ш</text>
<path d="M 105.4 197.9 Q 118.1 154.2 74.9 156.0" fill="none" stroke="#1a1a1a" stroke-width="1.2" marker-end="url(#arrow)"/>
<text x="116.9" y="169.3" font-family="osifont, ISOCPEUR, sans-serif" font-size="11" text-anchor="middle" dominant-baseline="central" fill="#1a1a1a">0/Ш</text>
<circle cx="62.6" cy="139.0" r="17" fill="#ffffff" stroke="#1a1a1a" stroke-width="1.2"/>
<text x="62.6" y="139.0" font-family="osifont, ISOCPEUR, sans-serif" font-size="13" text-anchor="middle" dominant-baseline="central" fill="#1a1a1a">0</text>
<circle cx="115.4" cy="66.3" r="17" fill="#ffffff" stroke="#1a1a1a" stroke-width="1.2"/>
<text x="115.4" y="66.3" font-family="osifont, ISOCPEUR, sans-serif" font-size="13" text-anchor="middle" dominant-baseline="central" fill="#1a1a1a">1</text>
<circle cx="200.8" cy="94.1" r="17" fill="#ffffff" stroke="#1a1a1a" stroke-width="1.2"/>
<text x="200.8" y="94.1" font-family="osifont, ISOCPEUR, sans-serif" font-size="13" text-anchor="middle" dominant-baseline="central" fill="#1a1a1a">2</text>
<circle cx="200.8" cy="183.9" r="17" fill="#ffffff" stroke="#1a1a1a" stroke-width="1.2"/>
<text x="200.8" y="183.9" font-family="osifont, ISOCPEUR, sans-serif" font-size="13" text-anchor="middle" dominant-baseline="central" fill="#1a1a1a">3</text>
<circle cx="115.4" cy="211.7" r="17" fill="#ffffff" stroke="#1a1a1a" stroke-width="1.2"/>
<text x="115.4" y="211.7" font-family="osifont, ISOCPEUR, sans-serif" font-size="13" text-anchor="middle" dominant-baseline="central" fill="#1a1a1a">4</text>
<path d="M 62.6 186.0 L 62.6 161.0" stroke="#1a1a1a" stroke-width="1.2" marker-end="url(#arrow)"/>
</svg>
