<?xml version="1.0" encoding="UTF-8"?>
<svg xmlns="http://www.w3.org/2000/svg" viewBox="0 0 298 298" width="298" height="298">
<rect width="298" height="298" fill="#ffffff"/>
<defs><marker id="arrow" viewBox="0 0 10 10" refX="9" refY="5" markerWidth="7" markerHeight="7" orient="auto-start-reverse"><path d="M 0 0 L 10 5 L 0 10 z" fill="#1a1a1a"/></marker></defs>
<path d="M 57.1 139.3 C 21.0 121.0 21.0 177.0 54.6 160.4" fill="none" stroke="#1a1a1a" stroke-width="1.2" marker-end="url(#arrow)"/>
<rect x="13.3" y="142.5" width="23.5" height="13.0" fill="#ffffff"/>
<text x="25.0" y="149.0" font-family="osifont, ISOCPEUR, sans-serif" font-size="11" text-anchor="middle" dominant-baseline="central" fill="#1a1a1a">1/Ш</text>
<path d="M 88.2 144.3 Q 128.6 130.1 143.5 90.5" fill="none" stroke="#1a1a1a" stroke-width="1.2" marker-end="url(#arrow)"/>
<rect x="115.1" y="126.7" width="23.5" height="13.0" fill="#ffffff"/>
<text x="126.8" y="133.2" font-family="osifont, ISOCPEUR, sans-serif" font-size="11" text-anchor="middle" dominant-baseline="central" fill="#1a1a1a">0/П</text>
<path d="M 131.8 75.7 Q 91.4 89.9 76.5 129.5" fill="none" stroke="#1a1a1a" stroke-width="1.2" marker-end="url(#arrow)"/>
<rect x="96.9" y="69.0" width="23.5" height="13.0" fill="#ffffff"/>
<text x="108.6" y="75.5" font-family="osifont, ISOCPEUR, sans-serif" font-size="11" text-anchor="middle" dominant-baseline="central" fill="#1a1a1a">1/Ш</text>
<path d="M 153.7 88.2 Q 167.9 128.6 207.5 143.5" fill="none" stroke="#1a1a1a" stroke-width="1.2" marker-end="url(#arrow)"/>
<rect x="153.1" y="120.3" width="23.5" height="13.0" fill="#ffffff"/>
<text x="164.8" y="126.8" font-family="osifont, ISOCPEUR, sans-serif" font-size="11" text-anchor="middle" dominant-baseline="central" fill="#1a1a1a">0/Л</text>
<path d="M 211.4 139.6 Q 150.6 107.2 89.7 138.0" fill="none" stroke="#1a1a1a" stroke-width="1.2" marker-end="url(#arrow)"/>
<rect x="173.0" y="111.5" width="23.5" height="13.0" fill="#ffffff"/>
<text x="184.7" y="118.0" font-family="osifont, ISOCPEUR, sans-serif" font-size="11" text-anchor="middle" dominant-baseline="central" fill="#1a1a1a">1/Ш</text>
<path d="M 209.8 153.7 Q 169.4 167.9 154.5 207.5" fill="none" stroke="#1a1a1a" stroke-width="1.2" marker-end="url(#arrow)"/>
<rect x="159.4" y="158.3" width="23.5" height="13.0" fill="#ffffff"/>
<text x="171.2" y="164.8" font-family="osifont, ISOCPEUR, sans-serif" font-size="11" text-anchor="middle" dominant-baseline="central" fill="#1a1a1a">0/Л</text>
<path d="M 144.3 209.8 Q 130.1 169.4 90.5 154.5" fill="none" stroke="#1a1a1a" stroke-width="1.2" marker-end="url(#arrow)"/>
<rect x="132.8" y="180.1" width="23.5" height="13.0" fill="#ffffff"/>
<text x="144.5" y="186.6" font-family="osifont, ISOCPEUR, sans-serif" font-size="11" text-anchor="middle" dominant-baseline="central" fill="#1a1a1a">1/Ш</text>
<path d="M 144.3 209.8 Q 130.1 169.4 90.5 154.5" fill="none" stroke="#1a1a1a" stroke-width="1.2" marker-end="url(#arrow)"/>
<rect x="121.4" y="164.7" width="23.5" height="13.0" fill="#ffffff"/>
<text x="133.2" y="171.2" font-family="osifont, ISOCPEUR, sans-serif" font-size="11" text-anchor="middle" dominant-baseline="central" fill="#1a1a1a">0/П</text>
<circle cx="71.0" cy="149.0" r="17" fill="#ffffff" stroke="#1a1a1a" stroke-width="1.2"/>
<text x="71.0" y="149.0" font-family="osifont, ISOCPEUR, sans-serif" font-size="13" text-anchor="middle" dominant-baseline="central" fill="#1a1a1a">0</text>
<circle cx="149.0" cy="71.0" r="17" fill="#ffffff" stroke="#1a1a1a" stroke-width="1.2"/>
<text x="149.0" y="71.0" font-family="osifont, ISOCPEUR, sans-serif" font-size="13" text-anchor="middle" dominant-baseline="central" fill="#1a1a1a">1</text>
<circle cx="227.0" cy="149.0" r="17" fill="#ffffff" stroke="#1a1a1a" stroke-width="1.2"/>
<text x="227.0" y="149.0" font-family="osifont, ISOCPEUR, sans-serif" font-size="13" text-anchor="middle" dominant-baseline="central" fill="#1a1a1a">2</text>
<circle cx="149.0" cy="227.0" r="17" fill="#ffffff" stroke="#1a1a1a" stroke-width="1.2"/>
<text x="149.0" y="227.0" font-family="osifont, ISOCPEUR, sans-serif" font-size="13" text-anchor="middle" dominant-baseline="central" fill="#1a1a1a">3</text>
<path d="M 71.0 198.0 L 71.0 169.0" stroke="#1a1a1a" stroke-width="1.2" marker-end="url(#arrow)"/>
</svg>
