<?xml version="1.0" encoding="UTF-8"?>
<svg xmlns="http://www.w3.org/2000/svg" viewBox="0 0 645 645" width="645" height="645">
<rect width="645" height="645" fill="#ffffff"/>
<defs><marker id="arrow" viewBox="0 0 10 10" refX="9" refY="5" markerWidth="7" markerHeight="7" orient="auto-start-reverse"><path d="M 0 0 L 10 5 L 0 10 z" fill="#1a1a1a"/></marker></defs>
<path d="M 50.8 310.5 C 16.8 296.5 16.8 348.5 48.8 334.5" fill="none" stroke="#1a1a1a" stroke-width="1.2" marker-end="url(#arrow)"/>
<text x="18.8" y="322.5" font-family="osifont, ISOCPEUR, sans-serif" font-size="11" text-anchor="middle" dominant-baseline="central" fill="#1a1a1a">1/Ш</text>
<path d="M 65.9 305.8 Q 109.1 282.6 76.4 249.3" fill="none" stroke="#1a1a1a" stroke-width="1.2" marker-end="url(#arrow)"/>
<text x="95.8" y="293.0" font-family="osifont, ISOCPEUR, sans-serif" font-size="11" text-anchor="middle" dominant-baseline="central" fill="#1a1a1a">0/П</text>
<path d="M 89.2 243.1 Q 131.6 440.7 287.5 563.3" fill="none" stroke="#1a1a1a" stroke-width="1.2" marker-end="url(#arrow)"/>
<text x="115.5" y="360.7" font-family="osifont, ISOCPEUR, sans-serif" font-size="11" text-anchor="middle" dominant-baseline="central" fill="#1a1a1a">1/Ш</text>
<path d="M 89.2 214.2 Q 137.9 208.2 119.5 165.4" fill="none" stroke="#1a1a1a" stroke-width="1.2" marker-end="url(#arrow)"/>
<text x="121.8" y="213.1" font-family="osifont, ISOCPEUR, sans-serif" font-size="11" text-anchor="middle" dominant-baseline="central" fill="#1a1a1a">0/П</text>
<path d="M 124.4 163.4 Q 33.2 210.4 70.3 302.9" fill="none" stroke="#1a1a1a" stroke-width="1.2" marker-end="url(#arrow)"/>
<text x="71.0" y="191.7" font-family="osifont, ISOCPEUR, sans-serif" font-size="11" text-anchor="middle" dominant-baseline="central" fill="#1a1a1a">1/Ш</text>
<path d="M 144.1 137.3 Q 191.6 149.2 190.0 102.6" fill="none" stroke="#1a1a1a" stroke-width="1.2" marker-end="url(#arrow)"/>
<text x="174.8" y="148.0" font-family="osifont, ISOCPEUR, sans-serif" font-size="11" text-anchor="middle" dominant-baseline="central" fill="#1a1a1a">0/П</text>
<path d="M 206.7 107.0 Q 138.7 322.5 206.7 534.0" fill="none" stroke="#1a1a1a" stroke-width="1.2" marker-end="url(#arrow)"/>
<text x="167.2" y="235.9" font-family="osifont, ISOCPEUR, sans-serif" font-size="11" text-anchor="middle" dominant-baseline="central" fill="#1a1a1a">1/Ш</text>
<path d="M 212.9 105.8 Q 236.7 355.7 386.0 552.7" fill="none" stroke="#1a1a1a" stroke-width="1.2" marker-end="url(#arrow)"/>
<text x="228.2" y="255.0" font-family="osifont, ISOCPEUR, sans-serif" font-size="11" text-anchor="middle" dominant-baseline="central" fill="#1a1a1a">0/П</text>
<path d="M 283.3 71.4 Q 184.2 44.8 149.3 138.2" fill="none" stroke="#1a1a1a" stroke-width="1.2" marker-end="url(#arrow)"/>
<text x="224.7" y="56.4" font-family="osifont, ISOCPEUR, sans-serif" font-size="11" text-anchor="middle" dominant-baseline="central" fill="#1a1a1a">1/Ш</text>
<path d="M 313.8 71.4 Q 390.6 185.7 524.5 176.4" fill="none" stroke="#1a1a1a" stroke-width="1.2" marker-end="url(#arrow)"/>
<text x="360.1" y="138.7" font-family="osifont, ISOCPEUR, sans-serif" font-size="11" text-anchor="middle" dominant-baseline="central" fill="#1a1a1a">0/Ш</text>
<path d="M 377.2 77.3 Q 243.5 44.7 150.7 141.8" fill="none" stroke="#1a1a1a" stroke-width="1.2" marker-end="url(#arrow)"/>
<text x="297.7" y="58.8" font-family="osifont, ISOCPEUR, sans-serif" font-size="11" text-anchor="middle" dominant-baseline="central" fill="#1a1a1a">1/Ш</text>
<path d="M 390.5 89.4 Q 279.2 314.4 302.4 560.5" fill="none" stroke="#1a1a1a" stroke-width="1.2" marker-end="url(#arrow)"/>
<text x="325.0" y="224.3" font-family="osifont, ISOCPEUR, sans-serif" font-size="11" text-anchor="middle" dominant-baseline="central" fill="#1a1a1a">0/Ш</text>
<path d="M 485.2 131.1 Q 465.0 267.3 570.2 350.6" fill="none" stroke="#1a1a1a" stroke-width="1.2" marker-end="url(#arrow)"/>
<text x="474.1" y="212.0" font-family="osifont, ISOCPEUR, sans-serif" font-size="11" text-anchor="middle" dominant-baseline="central" fill="#1a1a1a">1/Ш</text>
<path d="M 465.5 125.5 Q 238.7 211.5 97.1 403.7" fill="none" stroke="#1a1a1a" stroke-width="1.2" marker-end="url(#arrow)"/>
<text x="330.4" y="177.9" font-family="osifont, ISOCPEUR, sans-serif" font-size="11" text-anchor="middle" dominant-baseline="central" fill="#1a1a1a">0/Ш</text>
<path d="M 549.5 201.6 Q 525.0 244.1 570.2 255.2" fill="none" stroke="#1a1a1a" stroke-width="1.2" marker-end="url(#arrow)"/>
<text x="530.8" y="228.2" font-family="osifont, ISOCPEUR, sans-serif" font-size="11" text-anchor="middle" dominant-baseline="central" fill="#1a1a1a">1/Ш</text>
<path d="M 540.2 202.5 Q 444.3 345.3 482.9 509.1" fill="none" stroke="#1a1a1a" stroke-width="1.2" marker-end="url(#arrow)"/>
<text x="484.0" y="288.0" font-family="osifont, ISOCPEUR, sans-serif" font-size="11" text-anchor="middle" dominant-baseline="central" fill="#1a1a1a">0/П</text>
<path d="M 571.7 258.9 Q 596.2 216.5 550.9 205.3" fill="none" stroke="#1a1a1a" stroke-width="1.2" marker-end="url(#arrow)"/>
<text x="590.4" y="232.3" font-family="osifont, ISOCPEUR, sans-serif" font-size="11" text-anchor="middle" dominant-baseline="central" fill="#1a1a1a">1/Ш</text>
<path d="M 562.6 282.4 Q 323.9 325.3 149.3 488.1" fill="none" stroke="#1a1a1a" stroke-width="1.2" marker-end="url(#arrow)"/>
<text x="420.2" y="309.0" font-family="osifont, ISOCPEUR, sans-serif" font-size="11" text-anchor="middle" dominant-baseline="central" fill="#1a1a1a">0/Л</text>
<path d="M 571.7 386.1 Q 525.0 400.9 550.9 439.7" fill="none" stroke="#1a1a1a" stroke-width="1.2" marker-end="url(#arrow)"/>
<text x="539.9" y="393.2" font-family="osifont, ISOCPEUR, sans-serif" font-size="11" text-anchor="middle" dominant-baseline="central" fill="#1a1a1a">1/Ш</text>
<path d="M 562.6 362.6 Q 384.5 198.0 149.3 156.9" fill="none" stroke="#1a1a1a" stroke-width="1.2" marker-end="url(#arrow)"/>
<text x="455.5" y="265.1" font-family="osifont, ISOCPEUR, sans-serif" font-size="11" text-anchor="middle" dominant-baseline="central" fill="#1a1a1a">0/Ш</text>
<path d="M 529.8 469.5 Q 427.5 461.5 410.3 559.7" fill="none" stroke="#1a1a1a" stroke-width="1.2" marker-end="url(#arrow)"/>
<text x="469.4" y="465.5" font-family="osifont, ISOCPEUR, sans-serif" font-size="11" text-anchor="middle" dominant-baseline="central" fill="#1a1a1a">1/Ш</text>
<path d="M 528.1 466.8 Q 390.6 459.3 317.3 571.8" fill="none" stroke="#1a1a1a" stroke-width="1.2" marker-end="url(#arrow)"/>
<text x="446.5" y="463.3" font-family="osifont, ISOCPEUR, sans-serif" font-size="11" text-anchor="middle" dominant-baseline="central" fill="#1a1a1a">0/Ш</text>
<path d="M 475.9 513.1 Q 503.1 288.7 397.4 93.3" fill="none" stroke="#1a1a1a" stroke-width="1.2" marker-end="url(#arrow)"/>
<text x="491.1" y="379.0" font-family="osifont, ISOCPEUR, sans-serif" font-size="11" text-anchor="middle" dominant-baseline="central" fill="#1a1a1a">1/Ш</text>
<path d="M 479.0 512.8 Q 547.0 322.5 479.0 136.2" fill="none" stroke="#1a1a1a" stroke-width="1.2" marker-end="url(#arrow)"/>
<text x="518.6" y="399.0" font-family="osifont, ISOCPEUR, sans-serif" font-size="11" text-anchor="middle" dominant-baseline="central" fill="#1a1a1a">0/Л</text>
<path d="M 396.7 555.6 Q 503.1 356.3 475.2 135.9" fill="none" stroke="#1a1a1a" stroke-width="1.2" marker-end="url(#arrow)"/>
<text x="459.3" y="436.1" font-family="osifont, ISOCPEUR, sans-serif" font-size="11" text-anchor="middle" dominant-baseline="central" fill="#1a1a1a">1/Ш</text>
<path d="M 380.0 562.1 Q 269.1 393.1 79.5 335.2" fill="none" stroke="#1a1a1a" stroke-width="1.2" marker-end="url(#arrow)"/>
<text x="313.0" y="461.9" font-family="osifont, ISOCPEUR, sans-serif" font-size="11" text-anchor="middle" dominant-baseline="central" fill="#1a1a1a">0/Ш</text>
<path d="M 307.5 566.7 Q 478.7 419.2 532.3 203.6" fill="none" stroke="#1a1a1a" stroke-width="1.2" marker-end="url(#arrow)"/>
<text x="409.0" y="477.9" font-family="osifont, ISOCPEUR, sans-serif" font-size="11" text-anchor="middle" dominant-baseline="central" fill="#1a1a1a">1/Ш</text>
<path d="M 304.7 565.3 Q 452.2 372.7 471.4 134.8" fill="none" stroke="#1a1a1a" stroke-width="1.2" marker-end="url(#arrow)"/>
<text x="391.9" y="449.6" font-family="osifont, ISOCPEUR, sans-serif" font-size="11" text-anchor="middle" dominant-baseline="central" fill="#1a1a1a">0/Ш</text>
<path d="M 190.6 560.4 C 162.9 584.6 209.5 607.8 211.2 572.9" fill="none" stroke="#1a1a1a" stroke-width="1.2" marker-end="url(#arrow)"/>
<text x="187.1" y="594.4" font-family="osifont, ISOCPEUR, sans-serif" font-size="11" text-anchor="middle" dominant-baseline="central" fill="#1a1a1a">1/Ш</text>
<path d="M 209.8 538.3 Q 319.5 321.9 294.7 84.5" fill="none" stroke="#1a1a1a" stroke-width="1.2" marker-end="url(#arrow)"/>
<text x="274.3" y="408.6" font-family="osifont, ISOCPEUR, sans-serif" font-size="11" text-anchor="middle" dominant-baseline="central" fill="#1a1a1a">0/Ш</text>
<path d="M 145.8 505.1 Q 184.2 600.2 279.7 571.8" fill="none" stroke="#1a1a1a" stroke-width="1.2" marker-end="url(#arrow)"/>
<text x="169.1" y="560.9" font-family="osifont, ISOCPEUR, sans-serif" font-size="11" text-anchor="middle" dominant-baseline="central" fill="#1a1a1a">1/Ш</text>
<path d="M 146.9 502.1 Q 243.5 600.3 373.4 566.6" fill="none" stroke="#1a1a1a" stroke-width="1.2" marker-end="url(#arrow)"/>
<text x="204.8" y="559.8" font-family="osifont, ISOCPEUR, sans-serif" font-size="11" text-anchor="middle" dominant-baseline="central" fill="#1a1a1a">0/П</text>
<path d="M 97.2 414.8 Q 335.3 461.0 556.9 372.2" fill="none" stroke="#1a1a1a" stroke-width="1.2" marker-end="url(#arrow)"/>
<text x="239.6" y="441.3" font-family="osifont, ISOCPEUR, sans-serif" font-size="11" text-anchor="middle" dominant-baseline="central" fill="#1a1a1a">1/Ш</text>
<path d="M 89.2 430.8 Q 73.0 477.0 119.5 479.6" fill="none" stroke="#1a1a1a" stroke-width="1.2" marker-end="url(#arrow)"/>
<text x="75.8" y="460.4" font-family="osifont, ISOCPEUR, sans-serif" font-size="11" text-anchor="middle" dominant-baseline="central" fill="#1a1a1a">0/Л</text>
<circle cx="62.8" cy="322.5" r="17" fill="#ffffff" stroke="#1a1a1a" stroke-width="1.2"/>
<text x="62.8" y="322.5" font-family="osifont, ISOCPEUR, sans-serif" font-size="13" text-anchor="middle" dominant-baseline="central" fill="#1a1a1a">0</text>
<circle cx="80.3" cy="228.7" r="17" fill="#ffffff" stroke="#1a1a1a" stroke-width="1.2"/>
<text x="80.3" y="228.7" font-family="osifont, ISOCPEUR, sans-serif" font-size="13" text-anchor="middle" dominant-baseline="central" fill="#1a1a1a">1</text>
<circle cx="130.5" cy="147.5" r="17" fill="#ffffff" stroke="#1a1a1a" stroke-width="1.2"/>
<text x="130.5" y="147.5" font-family="osifont, ISOCPEUR, sans-serif" font-size="13" text-anchor="middle" dominant-baseline="central" fill="#1a1a1a">2</text>
<circle cx="206.7" cy="90.0" r="17" fill="#ffffff" stroke="#1a1a1a" stroke-width="1.2"/>
<text x="206.7" y="90.0" font-family="osifont, ISOCPEUR, sans-serif" font-size="13" text-anchor="middle" dominant-baseline="central" fill="#1a1a1a">3</text>
<circle cx="298.5" cy="63.9" r="17" fill="#ffffff" stroke="#1a1a1a" stroke-width="1.2"/>
<text x="298.5" y="63.9" font-family="osifont, ISOCPEUR, sans-serif" font-size="13" text-anchor="middle" dominant-baseline="central" fill="#1a1a1a">4</text>
<circle cx="393.6" cy="72.7" r="17" fill="#ffffff" stroke="#1a1a1a" stroke-width="1.2"/>
<text x="393.6" y="72.7" font-family="osifont, ISOCPEUR, sans-serif" font-size="13" text-anchor="middle" dominant-baseline="central" fill="#1a1a1a">5</text>
<circle cx="479.0" cy="115.2" r="17" fill="#ffffff" stroke="#1a1a1a" stroke-width="1.2"/>
<text x="479.0" y="115.2" font-family="osifont, ISOCPEUR, sans-serif" font-size="13" text-anchor="middle" dominant-baseline="central" fill="#1a1a1a">6</text>
<circle cx="543.3" cy="185.8" r="17" fill="#ffffff" stroke="#1a1a1a" stroke-width="1.2"/>
<text x="543.3" y="185.8" font-family="osifont, ISOCPEUR, sans-serif" font-size="13" text-anchor="middle" dominant-baseline="central" fill="#1a1a1a">7</text>
<circle cx="577.8" cy="274.8" r="17" fill="#ffffff" stroke="#1a1a1a" stroke-width="1.2"/>
<text x="577.8" y="274.8" font-family="osifont, ISOCPEUR, sans-serif" font-size="13" text-anchor="middle" dominant-baseline="central" fill="#1a1a1a">8</text>
<circle cx="577.8" cy="370.2" r="17" fill="#ffffff" stroke="#1a1a1a" stroke-width="1.2"/>
<text x="577.8" y="370.2" font-family="osifont, ISOCPEUR, sans-serif" font-size="13" text-anchor="middle" dominant-baseline="central" fill="#1a1a1a">9</text>
<circle cx="543.3" cy="459.2" r="17" fill="#ffffff" stroke="#1a1a1a" stroke-width="1.2"/>
<text x="543.3" y="459.2" font-family="osifont, ISOCPEUR, sans-serif" font-size="13" text-anchor="middle" dominant-baseline="central" fill="#1a1a1a">10</text>
<circle cx="479.0" cy="529.8" r="17" fill="#ffffff" stroke="#1a1a1a" stroke-width="1.2"/>
<text x="479.0" y="529.8" font-family="osifont, ISOCPEUR, sans-serif" font-size="13" text-anchor="middle" dominant-baseline="central" fill="#1a1a1a">11</text>
<circle cx="393.6" cy="572.3" r="17" fill="#ffffff" stroke="#1a1a1a" stroke-width="1.2"/>
<text x="393.6" y="572.3" font-family="osifont, ISOCPEUR, sans-serif" font-size="13" text-anchor="middle" dominant-baseline="central" fill="#1a1a1a">12</text>
<circle cx="298.5" cy="581.1" r="17" fill="#ffffff" stroke="#1a1a1a" stroke-width="1.2"/>
<text x="298.5" y="581.1" font-family="osifont, ISOCPEUR, sans-serif" font-size="13" text-anchor="middle" dominant-baseline="central" fill="#1a1a1a">13</text>
<circle cx="206.7" cy="555.0" r="17" fill="#ffffff" stroke="#1a1a1a" stroke-width="1.2"/>
<text x="206.7" y="555.0" font-family="osifont, ISOCPEUR, sans-serif" font-size="13" text-anchor="middle" dominant-baseline="central" fill="#1a1a1a">14</text>
<circle cx="130.5" cy="497.5" r="17" fill="#ffffff" stroke="#1a1a1a" stroke-width="1.2"/>
<text x="130.5" y="497.5" font-family="osifont, ISOCPEUR, sans-serif" font-size="13" text-anchor="middle" dominant-baseline="central" fill="#1a1a1a">15</text>
<circle cx="80.3" cy="416.3" r="17" fill="#ffffff" stroke="#1a1a1a" stroke-width="1.2"/>
<text x="80.3" y="416.3" font-family="osifont, ISOCPEUR, sans-serif" font-size="13" text-anchor="middle" dominant-baseline="central" fill="#1a1a1a">16</text>
<path d="M 62.8 369.5 L 62.8 344.5" stroke="#1a1a1a" stroke-width="1.2" marker-end="url(#arrow)"/>
</svg>
