<?xml version="1.0" encoding="UTF-8"?>
<svg xmlns="http://www.w3.org/2000/svg" viewBox="0 0 1076 212" width="1076" height="212">
<rect width="1076" height="212" fill="#ffffff"/>
<g stroke="#cccccc" stroke-width="0.5">
<line x1="6" y1="6" x2="6" y2="206"/>
<line x1="16" y1="6" x2="16" y2="206"/>
<line x1="26" y1="6" x2="26" y2="206"/>
<line x1="36" y1="6" x2="36" y2="206"/>
<line x1="46" y1="6" x2="46" y2="206"/>
<line x1="56" y1="6" x2="56" y2="206"/>
<line x1="66" y1="6" x2="66" y2="206"/>
<line x1="76" y1="6" x2="76" y2="206"/>
<line x1="86" y1="6" x2="86" y2="206"/>
<line x1="96" y1="6" x2="96" y2="206"/>
<line x1="106" y1="6" x2="106" y2="206"/>
<line x1="116" y1="6" x2="116" y2="206"/>
<line x1="126" y1="6" x2="126" y2="206"/>
<line x1="136" y1="6" x2="136" y2="206"/>
<line x1="146" y1="6" x2="146" y2="206"/>
<line x1="156" y1="6" x2="156" y2="206"/>
<line x1="166" y1="6" x2="166" y2="206"/>
<line x1="176" y1="6" x2="176" y2="206"/>
<line x1="186" y1="6" x2="186" y2="206"/>
<line x1="196" y1="6" x2="196" y2="206"/>
<line x1="206" y1="6" x2="206" y2="206"/>
<line x1="6" y1="6" x2="206" y2="6"/>
<line x1="6" y1="16" x2="206" y2="16"/>
<line x1="6" y1="26" x2="206" y2="26"/>
<line x1="6" y1="36" x2="206" y2="36"/>
<line x1="6" y1="46" x2="206" y2="46"/>
<line x1="6" y1="56" x2="206" y2="56"/>
<line x1="6" y1="66" x2="206" y2="66"/>
<line x1="6" y1="76" x2="206" y2="76"/>
<line x1="6" y1="86" x2="206" y2="86"/>
<line x1="6" y1="96" x2="206" y2="96"/>
<line x1="6" y1="106" x2="206" y2="106"/>
<line x1="6" y1="116" x2="206" y2="116"/>
<line x1="6" y1="126" x2="206" y2="126"/>
<line x1="6" y1="136" x2="206" y2="136"/>
<line x1="6" y1="146" x2="206" y2="146"/>
<line x1="6" y1="156" x2="206" y2="156"/>
<line x1="6" y1="166" x2="206" y2="166"/>
<line x1="6" y1="176" x2="206" y2="176"/>
<line x1="6" y1="186" x2="206" y2="186"/>
<line x1="6" y1="196" x2="206" y2="196"/>
<line x1="6" y1="206" x2="206" y2="206"/>
</g>
<rect x="56" y="46" width="10" height="10" fill="#1a1a1a"/>
<rect x="66" y="56" width="10" height="10" fill="#1a1a1a"/>
<rect x="46" y="66" width="10" height="10" fill="#1a1a1a"/>
<rect x="56" y="66" width="10" height="10" fill="#1a1a1a"/>
<rect x="66" y="66" width="10" height="10" fill="#1a1a1a"/>
<rect x="116" y="116" width="10" height="10" fill="#1a1a1a"/>
<rect x="126" y="116" width="10" height="10" fill="#1a1a1a"/>
<rect x="116" y="126" width="10" height="10" fill="#1a1a1a"/>
<rect x="136" y="126" width="10" height="10" fill="#1a1a1a"/>
<rect x="136" y="136" width="10" height="10" fill="#1a1a1a"/>
<rect x="136" y="146" width="10" height="10" fill="#1a1a1a"/>
<rect x="146" y="146" width="10" height="10" fill="#1a1a1a"/>
<rect x="6" y="6" width="200" height="200" fill="none" stroke="#666666" stroke-width="1"/>
<g stroke="#cccccc" stroke-width="0.5">
<line x1="222" y1="6" x2="222" y2="206"/>
<line x1="232" y1="6" x2="232" y2="206"/>
<line x1="242" y1="6" x2="242" y2="206"/>
<line x1="252" y1="6" x2="252" y2="206"/>
<line x1="262" y1="6" x2="262" y2="206"/>
<line x1="272" y1="6" x2="272" y2="206"/>
<line x1="282" y1="6" x2="282" y2="206"/>
<line x1="292" y1="6" x2="292" y2="206"/>
<line x1="302" y1="6" x2="302" y2="206"/>
<line x1="312" y1="6" x2="312" y2="206"/>
<line x1="322" y1="6" x2="322" y2="206"/>
<line x1="332" y1="6" x2="332" y2="206"/>
<line x1="342" y1="6" x2="342" y2="206"/>
<line x1="352" y1="6" x2="352" y2="206"/>
<line x1="362" y1="6" x2="362" y2="206"/>
<line x1="372" y1="6" x2="372" y2="206"/>
<line x1="382" y1="6" x2="382" y2="206"/>
<line x1="392" y1="6" x2="392" y2="206"/>
<line x1="402" y1="6" x2="402" y2="206"/>
<line x1="412" y1="6" x2="412" y2="206"/>
<line x1="422" y1="6" x2="422" y2="206"/>
<line x1="222" y1="6" x2="422" y2="6"/>
<line x1="222" y1="16" x2="422" y2="16"/>
<line x1="222" y1="26" x2="422" y2="26"/>
<line x1="222" y1="36" x2="422" y2="36"/>
<line x1="222" y1="46" x2="422" y2="46"/>
<line x1="222" y1="56" x2="422" y2="56"/>
<line x1="222" y1="66" x2="422" y2="66"/>
<line x1="222" y1="76" x2="422" y2="76"/>
<line x1="222" y1="86" x2="422" y2="86"/>
<line x1="222" y1="96" x2="422" y2="96"/>
<line x1="222" y1="106" x2="422" y2="106"/>
<line x1="222" y1="116" x2="422" y2="116"/>
<line x1="222" y1="126" x2="422" y2="126"/>
<line x1="222" y1="136" x2="422" y2="136"/>
<line x1="222" y1="146" x2="422" y2="146"/>
<line x1="222" y1="156" x2="422" y2="156"/>
<line x1="222" y1="166" x2="422" y2="166"/>
<line x1="222" y1="176" x2="422" y2="176"/>
<line x1="222" y1="186" x2="422" y2="186"/>
<line x1="222" y1="196" x2="422" y2="196"/>
<line x1="222" y1="206" x2="422" y2="206"/>
</g>
<rect x="282" y="56" width="10" height="10" fill="#1a1a1a"/>
<rect x="292" y="66" width="10" height="10" fill="#1a1a1a"/>
<rect x="272" y="76" width="10" height="10" fill="#1a1a1a"/>
<rect x="282" y="76" width="10" height="10" fill="#1a1a1a"/>
<rect x="292" y="76" width="10" height="10" fill="#1a1a1a"/>
<rect x="332" y="116" width="10" height="10" fill="#1a1a1a"/>
<rect x="342" y="116" width="10" height="10" fill="#1a1a1a"/>
<rect x="332" y="126" width="10" height="10" fill="#1a1a1a"/>
<rect x="352" y="126" width="10" height="10" fill="#1a1a1a"/>
<rect x="352" y="136" width="10" height="10" fill="#1a1a1a"/>
<rect x="352" y="146" width="10" height="10" fill="#1a1a1a"/>
<rect x="362" y="146" width="10" height="10" fill="#1a1a1a"/>
<rect x="222" y="6" width="200" height="200" fill="none" stroke="#666666" stroke-width="1"/>
<g stroke="#cccccc" stroke-width="0.5">
<line x1="438" y1="6" x2="438" y2="206"/>
<line x1="448" y1="6" x2="448" y2="206"/>
<line x1="458" y1="6" x2="458" y2="206"/>
<line x1="468" y1="6" x2="468" y2="206"/>
<line x1="478" y1="6" x2="478" y2="206"/>
<line x1="488" y1="6" x2="488" y2="206"/>
<line x1="498" y1="6" x2="498" y2="206"/>
<line x1="508" y1="6" x2="508" y2="206"/>
<line x1="518" y1="6" x2="518" y2="206"/>
<line x1="528" y1="6" x2="528" y2="206"/>
<line x1="538" y1="6" x2="538" y2="206"/>
<line x1="548" y1="6" x2="548" y2="206"/>
<line x1="558" y1="6" x2="558" y2="206"/>
<line x1="568" y1="6" x2="568" y2="206"/>
<line x1="578" y1="6" x2="578" y2="206"/>
<line x1="588" y1="6" x2="588" y2="206"/>
<line x1="598" y1="6" x2="598" y2="206"/>
<line x1="608" y1="6" x2="608" y2="206"/>
<line x1="618" y1="6" x2="618" y2="206"/>
<line x1="628" y1="6" x2="628" y2="206"/>
<line x1="638" y1="6" x2="638" y2="206"/>
<line x1="438" y1="6" x2="638" y2="6"/>
<line x1="438" y1="16" x2="638" y2="16"/>
<line x1="438" y1="26" x2="638" y2="26"/>
<line x1="438" y1="36" x2="638" y2="36"/>
<line x1="438" y1="46" x2="638" y2="46"/>
<line x1="438" y1="56" x2="638" y2="56"/>
<line x1="438" y1="66" x2="638" y2="66"/>
<line x1="438" y1="76" x2="638" y2="76"/>
<line x1="438" y1="86" x2="638" y2="86"/>
<line x1="438" y1="96" x2="638" y2="96"/>
<line x1="438" y1="106" x2="638" y2="106"/>
<line x1="438" y1="116" x2="638" y2="116"/>
<line x1="438" y1="126" x2="638" y2="126"/>
<line x1="438" y1="136" x2="638" y2="136"/>
<line x1="438" y1="146" x2="638" y2="146"/>
<line x1="438" y1="156" x2="638" y2="156"/>
<line x1="438" y1="166" x2="638" y2="166"/>
<line x1="438" y1="176" x2="638" y2="176"/>
<line x1="438" y1="186" x2="638" y2="186"/>
<line x1="438" y1="196" x2="638" y2="196"/>
<line x1="438" y1="206" x2="638" y2="206"/>
</g>
<rect x="508" y="66" width="10" height="10" fill="#1a1a1a"/>
<rect x="518" y="76" width="10" height="10" fill="#1a1a1a"/>
<rect x="498" y="86" width="10" height="10" fill="#1a1a1a"/>
<rect x="508" y="86" width="10" height="10" fill="#1a1a1a"/>
<rect x="518" y="86" width="10" height="10" fill="#1a1a1a"/>
<rect x="548" y="116" width="10" height="10" fill="#1a1a1a"/>
<rect x="558" y="116" width="10" height="10" fill="#1a1a1a"/>
<rect x="548" y="126" width="10" height="10" fill="#1a1a1a"/>
<rect x="568" y="126" width="10" height="10" fill="#1a1a1a"/>
<rect x="568" y="136" width="10" height="10" fill="#1a1a1a"/>
<rect x="568" y="146" width="10" height="10" fill="#1a1a1a"/>
<rect x="578" y="146" width="10" height="10" fill="#1a1a1a"/>
<rect x="438" y="6" width="200" height="200" fill="none" stroke="#666666" stroke-width="1"/>
<g stroke="#cccccc" stroke-width="0.5">
<line x1="654" y1="6" x2="654" y2="206"/>
<line x1="664" y1="6" x2="664" y2="206"/>
<line x1="674" y1="6" x2="674" y2="206"/>
<line x1="684" y1="6" x2="684" y2="206"/>
<line x1="694" y1="6" x2="694" y2="206"/>
<line x1="704" y1="6" x2="704" y2="206"/>
<line x1="714" y1="6" x2="714" y2="206"/>
<line x1="724" y1="6" x2="724" y2="206"/>
<line x1="734" y1="6" x2="734" y2="206"/>
<line x1="744" y1="6" x2="744" y2="206"/>
<line x1="754" y1="6" x2="754" y2="206"/>
<line x1="764" y1="6" x2="764" y2="206"/>
<line x1="774" y1="6" x2="774" y2="206"/>
<line x1="784" y1="6" x2="784" y2="206"/>
<line x1="794" y1="6" x2="794" y2="206"/>
<line x1="804" y1="6" x2="804" y2="206"/>
<line x1="814" y1="6" x2="814" y2="206"/>
<line x1="824" y1="6" x2="824" y2="206"/>
<line x1="834" y1="6" x2="834" y2="206"/>
<line x1="844" y1="6" x2="844" y2="206"/>
<line x1="854" y1="6" x2="854" y2="206"/>
<line x1="654" y1="6" x2="854" y2="6"/>
<line x1="654" y1="16" x2="854" y2="16"/>
<line x1="654" y1="26" x2="854" y2="26"/>
<line x1="654" y1="36" x2="854" y2="36"/>
<line x1="654" y1="46" x2="854" y2="46"/>
<line x1="654" y1="56" x2="854" y2="56"/>
<line x1="654" y1="66" x2="854" y2="66"/>
<line x1="654" y1="76" x2="854" y2="76"/>
<line x1="654" y1="86" x2="854" y2="86"/>
<line x1="654" y1="96" x2="854" y2="96"/>
<line x1="654" y1="106" x2="854" y2="106"/>
<line x1="654" y1="116" x2="854" y2="116"/>
<line x1="654" y1="126" x2="854" y2="126"/>
<line x1="654" y1="136" x2="854" y2="136"/>
<line x1="654" y1="146" x2="854" y2="146"/>
<line x1="654" y1="156" x2="854" y2="156"/>
<line x1="654" y1="166" x2="854" y2="166"/>
<line x1="654" y1="176" x2="854" y2="176"/>
<line x1="654" y1="186" x2="854" y2="186"/>
<line x1="654" y1="196" x2="854" y2="196"/>
<line x1="654" y1="206" x2="854" y2="206"/>
</g>
<rect x="734" y="76" width="10" height="10" fill="#1a1a1a"/>
<rect x="744" y="86" width="10" height="10" fill="#1a1a1a"/>
<rect x="724" y="96" width="10" height="10" fill="#1a1a1a"/>
<rect x="734" y="96" width="10" height="10" fill="#1a1a1a"/>
<rect x="744" y="96" width="10" height="10" fill="#1a1a1a"/>
<rect x="764" y="116" width="10" height="10" fill="#1a1a1a"/>
<rect x="774" y="116" width="10" height="10" fill="#1a1a1a"/>
<rect x="764" y="126" width="10" height="10" fill="#1a1a1a"/>
<rect x="784" y="126" width="10" height="10" fill="#1a1a1a"/>
<rect x="784" y="136" width="10" height="10" fill="#1a1a1a"/>
<rect x="784" y="146" width="10" height="10" fill="#1a1a1a"/>
<rect x="794" y="146" width="10" height="10" fill="#1a1a1a"/>
<rect x="654" y="6" width="200" height="200" fill="none" stroke="#666666" stroke-width="1"/>
<g stroke="#cccccc" stroke-width="0.5">
<line x1="870" y1="6" x2="870" y2="206"/>
<line x1="880" y1="6" x2="880" y2="206"/>
<line x1="890" y1="6" x2="890" y2="206"/>
<line x1="900" y1="6" x2="900" y2="206"/>
<line x1="910" y1="6" x2="910" y2="206"/>
<line x1="920" y1="6" x2="920" y2="206"/>
<line x1="930" y1="6" x2="930" y2="206"/>
<line x1="940" y1="6" x2="940" y2="206"/>
<line x1="950" y1="6" x2="950" y2="206"/>
<line x1="960" y1="6" x2="960" y2="206"/>
<line x1="970" y1="6" x2="970" y2="206"/>
<line x1="980" y1="6" x2="980" y2="206"/>
<line x1="990" y1="6" x2="990" y2="206"/>
<line x1="1000" y1="6" x2="1000" y2="206"/>
<line x1="1010" y1="6" x2="1010" y2="206"/>
<line x1="1020" y1="6" x2="1020" y2="206"/>
<line x1="1030" y1="6" x2="1030" y2="206"/>
<line x1="1040" y1="6" x2="1040" y2="206"/>
<line x1="1050" y1="6" x2="1050" y2="206"/>
<line x1="1060" y1="6" x2="1060" y2="206"/>
<line x1="1070" y1="6" x2="1070" y2="206"/>
<line x1="870" y1="6" x2="1070" y2="6"/>
<line x1="870" y1="16" x2="1070" y2="16"/>
<line x1="870" y1="26" x2="1070" y2="26"/>
<line x1="870" y1="36" x2="1070" y2="36"/>
<line x1="870" y1="46" x2="1070" y2="46"/>
<line x1="870" y1="56" x2="1070" y2="56"/>
<line x1="870" y1="66" x2="1070" y2="66"/>
<line x1="870" y1="76" x2="1070" y2="76"/>
<line x1="870" y1="86" x2="1070" y2="86"/>
<line x1="870" y1="96" x2="1070" y2="96"/>
<line x1="870" y1="106" x2="1070" y2="106"/>
<line x1="870" y1="116" x2="1070" y2="116"/>
<line x1="870" y1="126" x2="1070" y2="126"/>
<line x1="870" y1="136" x2="1070" y2="136"/>
<line x1="870" y1="146" x2="1070" y2="146"/>
<line x1="870" y1="156" x2="1070" y2="156"/>
<line x1="870" y1="166" x2="1070" y2="166"/>
<line x1="870" y1="176" x2="1070" y2="176"/>
<line x1="870" y1="186" x2="1070" y2="186"/>
<line x1="870" y1="196" x2="1070" y2="196"/>
<line x1="870" y1="206" x2="1070" y2="206"/>
</g>
<rect x="960" y="86" width="10" height="10" fill="#1a1a1a"/>
<rect x="970" y="96" width="10" height="10" fill="#1a1a1a"/>
<rect x="950" y="106" width="10" height="10" fill="#1a1a1a"/>
<rect x="990" y="116" width="10" height="10" fill="#1a1a1a"/>
<rect x="970" y="126" width="10" height="10" fill="#1a1a1a"/>
<rect x="980" y="126" width="10" height="10" fill="#1a1a1a"/>
<rect x="1000" y="126" width="10" height="10" fill="#1a1a1a"/>
<rect x="1000" y="136" width="10" height="10" fill="#1a1a1a"/>
<rect x="1000" y="146" width="10" height="10" fill="#1a1a1a"/>
<rect x="1010" y="146" width="10" height="10" fill="#1a1a1a"/>
<rect x="870" y="6" width="200" height="200" fill="none" stroke="#666666" stroke-width="1"/>
</svg>
