<?xml version="1.0" encoding="UTF-8"?>
<svg xmlns="http://www.w3.org/2000/svg" viewBox="0 0 344 127" width="344" height="127">
<rect width="344" height="127" fill="#ffffff"/>
<g stroke="#cccccc" stroke-width="0.5">
<line x1="6" y1="6" x2="6" y2="86"/>
<line x1="16" y1="6" x2="16" y2="86"/>
<line x1="26" y1="6" x2="26" y2="86"/>
<line x1="36" y1="6" x2="36" y2="86"/>
<line x1="46" y1="6" x2="46" y2="86"/>
<line x1="56" y1="6" x2="56" y2="86"/>
<line x1="66" y1="6" x2="66" y2="86"/>
<line x1="76" y1="6" x2="76" y2="86"/>
<line x1="86" y1="6" x2="86" y2="86"/>
<line x1="96" y1="6" x2="96" y2="86"/>
<line x1="106" y1="6" x2="106" y2="86"/>
<line x1="6" y1="6" x2="106" y2="6"/>
<line x1="6" y1="16" x2="106" y2="16"/>
<line x1="6" y1="26" x2="106" y2="26"/>
<line x1="6" y1="36" x2="106" y2="36"/>
<line x1="6" y1="46" x2="106" y2="46"/>
<line x1="6" y1="56" x2="106" y2="56"/>
<line x1="6" y1="66" x2="106" y2="66"/>
<line x1="6" y1="76" x2="106" y2="76"/>
<line x1="6" y1="86" x2="106" y2="86"/>
</g>
<rect x="16" y="16" width="10" height="10" fill="#1a1a1a"/>
<rect x="46" y="16" width="10" height="10" fill="#1a1a1a"/>
<rect x="56" y="26" width="10" height="10" fill="#1a1a1a"/>
<rect x="16" y="36" width="10" height="10" fill="#1a1a1a"/>
<rect x="56" y="36" width="10" height="10" fill="#1a1a1a"/>
<rect x="26" y="46" width="10" height="10" fill="#1a1a1a"/>
<rect x="36" y="46" width="10" height="10" fill="#1a1a1a"/>
<rect x="46" y="46" width="10" height="10" fill="#1a1a1a"/>
<rect x="56" y="46" width="10" height="10" fill="#1a1a1a"/>
<rect x="6" y="6" width="100" height="80" fill="none" stroke="#666666" stroke-width="1"/>
<text x="56.0" y="103.5" font-family="osifont, ISOCPEUR, sans-serif" font-size="25" text-anchor="middle" dominant-baseline="central" fill="#1a1a1a">а)</text>
<g stroke="#cccccc" stroke-width="0.5">
<line x1="122" y1="6" x2="122" y2="86"/>
<line x1="132" y1="6" x2="132" y2="86"/>
<line x1="142" y1="6" x2="142" y2="86"/>
<line x1="152" y1="6" x2="152" y2="86"/>
<line x1="162" y1="6" x2="162" y2="86"/>
<line x1="172" y1="6" x2="172" y2="86"/>
<line x1="182" y1="6" x2="182" y2="86"/>
<line x1="192" y1="6" x2="192" y2="86"/>
<line x1="202" y1="6" x2="202" y2="86"/>
<line x1="212" y1="6" x2="212" y2="86"/>
<line x1="222" y1="6" x2="222" y2="86"/>
<line x1="122" y1="6" x2="222" y2="6"/>
<line x1="122" y1="16" x2="222" y2="16"/>
<line x1="122" y1="26" x2="222" y2="26"/>
<line x1="122" y1="36" x2="222" y2="36"/>
<line x1="122" y1="46" x2="222" y2="46"/>
<line x1="122" y1="56" x2="222" y2="56"/>
<line x1="122" y1="66" x2="222" y2="66"/>
<line x1="122" y1="76" x2="222" y2="76"/>
<line x1="122" y1="86" x2="222" y2="86"/>
</g>
<rect x="152" y="26" width="10" height="10" fill="#1a1a1a"/>
<rect x="162" y="26" width="10" height="10" fill="#1a1a1a"/>
<rect x="172" y="26" width="10" height="10" fill="#1a1a1a"/>
<rect x="182" y="26" width="10" height="10" fill="#1a1a1a"/>
<rect x="142" y="36" width="10" height="10" fill="#1a1a1a"/>
<rect x="182" y="36" width="10" height="10" fill="#1a1a1a"/>
<rect x="182" y="46" width="10" height="10" fill="#1a1a1a"/>
<rect x="142" y="56" width="10" height="10" fill="#1a1a1a"/>
<rect x="172" y="56" width="10" height="10" fill="#1a1a1a"/>
<rect x="122" y="6" width="100" height="80" fill="none" stroke="#666666" stroke-width="1"/>
<text x="172.0" y="103.5" font-family="osifont, ISOCPEUR, sans-serif" font-size="25" text-anchor="middle" dominant-baseline="central" fill="#1a1a1a">б)</text>
<g stroke="#cccccc" stroke-width="0.5">
<line x1="238" y1="6" x2="238" y2="86"/>
<line x1="248" y1="6" x2="248" y2="86"/>
<line x1="258" y1="6" x2="258" y2="86"/>
<line x1="268" y1="6" x2="268" y2="86"/>
<line x1="278" y1="6" x2="278" y2="86"/>
<line x1="288" y1="6" x2="288" y2="86"/>
<line x1="298" y1="6" x2="298" y2="86"/>
<line x1="308" y1="6" x2="308" y2="86"/>
<line x1="318" y1="6" x2="318" y2="86"/>
<line x1="328" y1="6" x2="328" y2="86"/>
<line x1="338" y1="6" x2="338" y2="86"/>
<line x1="238" y1="6" x2="338" y2="6"/>
<line x1="238" y1="16" x2="338" y2="16"/>
<line x1="238" y1="26" x2="338" y2="26"/>
<line x1="238" y1="36" x2="338" y2="36"/>
<line x1="238" y1="46" x2="338" y2="46"/>
<line x1="238" y1="56" x2="338" y2="56"/>
<line x1="238" y1="66" x2="338" y2="66"/>
<line x1="238" y1="76" x2="338" y2="76"/>
<line x1="238" y1="86" x2="338" y2="86"/>
</g>
<rect x="268" y="16" width="10" height="10" fill="#1a1a1a"/>
<rect x="298" y="16" width="10" height="10" fill="#1a1a1a"/>
<rect x="308" y="26" width="10" height="10" fill="#1a1a1a"/>
<rect x="268" y="36" width="10" height="10" fill="#1a1a1a"/>
<rect x="308" y="36" width="10" height="10" fill="#1a1a1a"/>
<rect x="278" y="46" width="10" height="10" fill="#1a1a1a"/>
<rect x="288" y="46" width="10" height="10" fill="#1a1a1a"/>
<rect x="298" y="46" width="10" height="10" fill="#1a1a1a"/>
<rect x="308" y="46" width="10" height="10" fill="#1a1a1a"/>
<rect x="238" y="6" width="100" height="80" fill="none" stroke="#666666" stroke-width="1"/>
<text x="288.0" y="103.5" font-family="osifont, ISOCPEUR, sans-serif" font-size="25" text-anchor="middle" dominant-baseline="central" fill="#1a1a1a">в)</text>
</svg>
